<?xml version="1.0" encoding="iso-8859-1"?>
<!-- Generator: Adobe Illustrator 19.0.0, SVG Export Plug-In . SVG Version: 6.00 Build 0)  -->
<svg xmlns="http://www.w3.org/2000/svg" xmlns:xlink="http://www.w3.org/1999/xlink" version="1.1" id="Layer_1" x="0px" y="0px" viewBox="0 0 512.003 512.003" style="enable-background:new 0 0 512.003 512.003;" xml:space="preserve" width="512px" height="512px">
<g>
	<g>
		<path d="M475.244,264.501c-3.36-5.164-3.36-11.836,0-16.998l18.698-28.739c17.034-26.181,5.553-61.352-23.554-72.492l-32.02-12.26    c-5.753-2.204-9.675-7.601-9.992-13.754l-1.765-34.24c-1.608-31.187-31.566-52.902-61.667-44.802l-33.109,8.902    c-5.947,1.598-12.295-0.463-16.167-5.254l-21.555-26.665c-19.631-24.284-56.624-24.245-76.223,0l-21.555,26.666    c-3.874,4.79-10.218,6.853-16.167,5.254l-33.111-8.902c-30.154-8.11-60.062,13.668-61.667,44.802l-1.765,34.24    c-0.318,6.152-4.239,11.55-9.992,13.753l-32.018,12.26c-29.17,11.166-40.555,46.363-23.556,72.492l18.699,28.74    c3.359,5.162,3.359,11.833-0.001,16.997l-18.698,28.74c-17.032,26.178-5.556,61.348,23.554,72.491l32.02,12.26    c5.753,2.204,9.676,7.601,9.992,13.754l1.765,34.24c1.608,31.185,31.562,52.899,61.667,44.802l33.109-8.902    c5.949-1.596,12.295,0.463,16.168,5.254l21.553,26.664c19.635,24.291,56.628,24.241,76.223,0l21.556-26.665    c3.872-4.79,10.217-6.85,16.166-5.253l33.111,8.902c30.157,8.111,60.062-13.672,61.667-44.802l1.765-34.24    c0.318-6.152,4.239-11.55,9.992-13.753l32.018-12.26c29.171-11.166,40.555-46.367,23.557-72.493L475.244,264.501z     M458.437,334.521l-32.02,12.26c-18.089,6.926-30.421,23.9-31.418,43.243l-1.765,34.24c-0.512,9.924-10.036,16.818-19.612,14.249    l-33.111-8.902c-18.705-5.033-38.661,1.454-50.836,16.518l-21.555,26.664c-6.245,7.725-18.009,7.71-24.241,0l-21.553-26.664    c-9.439-11.676-23.551-18.198-38.132-18.198c-4.23,0-8.499,0.548-12.706,1.68l-33.111,8.902    c-9.595,2.577-19.1-4.348-19.612-14.249l-1.765-34.24c-0.997-19.343-13.33-36.318-31.418-43.243l-32.021-12.261    c-9.276-3.551-12.895-14.744-7.49-23.053l18.698-28.739c10.564-16.236,10.564-37.218,0-53.452l-18.698-28.738    c-5.415-8.329-1.767-19.509,7.491-23.055l32.02-12.26c18.089-6.926,30.421-23.9,31.418-43.243l1.765-34.24    c0.511-9.922,10.036-16.82,19.612-14.249l33.111,8.902c18.703,5.03,38.659-1.455,50.836-16.518L243.88,39.21    c6.245-7.724,18.01-7.708,24.241,0l21.555,26.665c12.178,15.063,32.129,21.55,50.837,16.518l33.111-8.902    c9.596-2.576,19.1,4.347,19.612,14.249l1.765,34.24c0.997,19.343,13.33,36.318,31.418,43.243l32.021,12.261    c9.277,3.552,12.896,14.744,7.49,23.053l-18.698,28.739c-10.563,16.234-10.563,37.216,0,53.452l18.698,28.739    C471.346,319.793,467.696,330.976,458.437,334.521z" fill="#FFFFFF"/>
	</g>
</g>
<g>
	<g>
		<path d="M271.968,239.696V173.52c17.591,4.295,33.421,16.214,33.421,31.421c0,9.229,7.482,16.711,16.711,16.711    c9.229,0,16.711-7.482,16.711-16.711c0-30.852-26.49-59.039-66.843-65.509v-18.043c0-9.229-7.482-16.711-16.711-16.711    s-16.711,7.482-16.711,16.711v18.044c-41.348,6.63-66.843,35.471-66.843,65.509c0,30.781,26.402,59.024,66.843,65.508v66.175    c-17.795-4.345-33.421-16.343-33.421-31.419c0-9.229-7.482-16.711-16.711-16.711s-16.711,7.482-16.711,16.711    c0,18.505,9.572,36.299,26.263,48.816c11.4,8.55,25.427,14.262,40.58,16.692v18.045c0,9.229,7.482,16.711,16.711,16.711    s16.711-7.482,16.711-16.711v-18.045c40.787-6.539,66.843-34.998,66.843-65.508C338.811,274.353,312.321,246.167,271.968,239.696z     M238.547,236.362c-17.795-4.346-33.421-16.344-33.421-31.421c0-15.085,15.631-27.078,33.421-31.421V236.362z M271.968,336.626    v-62.841c17.591,4.295,33.421,16.213,33.421,31.421C305.39,321.096,288.503,332.588,271.968,336.626z" fill="#FFFFFF"/>
	</g>
</g>
<g>
</g>
<g>
</g>
<g>
</g>
<g>
</g>
<g>
</g>
<g>
</g>
<g>
</g>
<g>
</g>
<g>
</g>
<g>
</g>
<g>
</g>
<g>
</g>
<g>
</g>
<g>
</g>
<g>
</g>
</svg>
